# xmcd CD database file
#
# Track frame offsets:
#	150
#	12820
#	30390
#	48465
#	71025
#	90147
#	100840
#	121505
#	159880
#	178032
#
# Disc length: 2635 seconds
#
# Revision: 0
# Processed by: cddbd v1.5PL3 Copyright (c) Steve Scherf et al.
# Submitted via: CDex 1.51
#
DISCID=660a490a
DTITLE=Bernd Scholl - Tales of Fantasy
DYEAR=1900
DGENRE=New Age
TTITLE0=On a cold winterday
TTITLE1=Way to reality
TTITLE2=Janine
TTITLE3=Journey (through the night)
TTITLE4=Morning sun
TTITLE5=Little dream
TTITLE6=Vision
TTITLE7=Tales of fantasy
TTITLE8=Runaway
TTITLE9=Good-bye
EXTD=
EXTT0=
EXTT1=
EXTT2=
EXTT3=
EXTT4=
EXTT5=
EXTT6=
EXTT7=
EXTT8=
EXTT9=
PLAYORDER=
